<?xml version="1.0" encoding="UTF-8"?>
<!DOCTYPE svg PUBLIC "-//W3C//DTD SVG 1.0//EN" "http://www.w3.org/TR/2001/REC-SVG-20010904/DTD/svg10.dtd">
<!-- Creator: CorelDRAW -->
<svg xmlns="http://www.w3.org/2000/svg" xml:space="preserve" width="394px" height="394px" version="1.0" style="shape-rendering:geometricPrecision; text-rendering:geometricPrecision; image-rendering:optimizeQuality; fill-rule:evenodd; clip-rule:evenodd"
viewBox="0 0 6.49 6.49"
 xmlns:xlink="http://www.w3.org/1999/xlink"
 xmlns:xodm="http://www.corel.com/coreldraw/odm/2003">
 <defs>
  <style type="text/css">
   <![CDATA[
    .fil0 {fill:#FEFEFE}
    .fil2 {fill:#0E9C4A;fill-rule:nonzero}
    .fil1 {fill:#1460B4;fill-rule:nonzero}
   ]]>
  </style>
 </defs>
 <g id="Layer_x0020_1">
  <metadata id="CorelCorpID_0Corel-Layer"/>
  <g id="_2203750208816">
   <rect class="fil0" width="6.49" height="6.49"/>
   <g>
    <path class="fil1" d="M4.28 2.83c-0.57,-0.57 -1.5,-0.57 -2.07,0 -0.58,0.57 -0.58,1.5 0,2.07 0.57,0.58 1.5,0.58 2.07,0 0.57,-0.57 0.57,-1.5 0,-2.07zm-1.04 0.03c0.56,0 1.01,0.45 1.01,1.01 0,0.55 -0.45,1.01 -1.01,1.01 -0.55,0 -1.01,-0.46 -1.01,-1.01 0.01,-0.56 0.46,-1.01 1.01,-1.01zm2.1 -1.32l0.17 0.37 0.41 0.06c0.07,0.01 0.1,0.09 0.05,0.14l-0.3 0.28 0.07 0.41c0.02,0.07 -0.06,0.12 -0.12,0.09l-0.36 -0.2 -0.36 0.2c-0.06,0.03 -0.14,-0.02 -0.12,-0.1l0.07 -0.4 -0.3 -0.28c-0.05,-0.05 -0.02,-0.13 0.05,-0.14l0.41 -0.06 0.18 -0.37c0.03,-0.06 0.11,-0.06 0.15,0zm-4.04 0l0.18 0.37 0.41 0.06c0.06,0.01 0.09,0.09 0.04,0.14l-0.3 0.28 0.08 0.41c0.01,0.07 -0.06,0.12 -0.12,0.09l-0.36 -0.2 -0.37 0.2c-0.06,0.03 -0.13,-0.02 -0.12,-0.1l0.08 -0.4 -0.3 -0.28c-0.05,-0.05 -0.03,-0.13 0.04,-0.14l0.41 -0.06 0.18 -0.37c0.03,-0.06 0.12,-0.06 0.15,0zm2.02 -0.86l0.18 0.37 0.4 0.06c0.07,0.01 0.1,0.09 0.05,0.14l-0.3 0.28 0.08 0.41c0.01,0.07 -0.06,0.12 -0.12,0.09l-0.37 -0.2 -0.36 0.2c-0.06,0.03 -0.14,-0.02 -0.12,-0.1l0.07 -0.4 -0.3 -0.28c-0.05,-0.05 -0.02,-0.13 0.05,-0.14l0.41 -0.06 0.18 -0.37c0.03,-0.06 0.12,-0.06 0.15,0l0 0z"/>
    <path class="fil2" d="M3.83 3.28c-0.33,-0.32 -0.85,-0.32 -1.17,0 -0.32,0.33 -0.32,0.85 0,1.17 0.32,0.32 0.84,0.32 1.17,0 0.32,-0.32 0.32,-0.84 0,-1.17zm-1.06 0.65c-0.02,-0.04 -0.01,-0.09 0.04,-0.12 0.04,-0.02 0.09,-0.01 0.12,0.03l0.14 0.25 0.5 -0.49c0.04,-0.04 0.09,-0.04 0.13,0 0.03,0.03 0.03,0.09 0,0.13l-0.58 0.58c-0.04,0.04 -0.11,0.03 -0.14,-0.02l-0.21 -0.36z"/>
    <path class="fil2" d="M2.6 5.38c-0.23,-0.09 -0.43,-0.24 -0.59,-0.43l-0.37 0.65 0.37 -0.06c0.03,-0.01 0.07,0 0.09,0.03l0.23 0.28 0.27 -0.47zm1.88 -0.43c-0.16,0.19 -0.36,0.34 -0.59,0.43l0.27 0.47 0.23 -0.28c0.02,-0.03 0.05,-0.04 0.08,-0.03l0.38 0.06 -0.37 -0.65z"/>
   </g>
  </g>
 </g>
</svg>
